<svg height="512" viewBox="0 0 64 64" width="512" xmlns="http://www.w3.org/2000/svg"><g id="fruit-shopping-store-shop-market"><path d="m4 15h56v46h-56z" fill="#00ddc2"/><path d="m24 29h32v28h-32z" fill="#57a4ff"/><path d="m60 4v3h-56v-3a1 1 0 0 1 1-1h54a1 1 0 0 1 1 1z" fill="#ffda44"/><path d="m3 7h58v8h-58z" fill="#ff7956"/><path d="m8 36h12v3h-12z" fill="#acabb1"/><path d="m8 33h12v3h-12z" fill="#e0e0e2"/><path d="m8 39h12v22h-12z" fill="#c6c5ca"/><path d="m52 16h-48v6a4 4 0 0 0 8 0 4 4 0 0 0 8 0 4 4 0 0 0 8 0 4 4 0 0 0 8 0 4 4 0 0 0 8 0 4 4 0 0 0 8 0 4 4 0 0 0 8 0v-6z" fill="#2d2d30"/><path d="m20 15v6a4 4 0 0 1 -8 0v-6z" fill="#ffda44"/><path d="m36 15v6a4 4 0 0 1 -8 0v-6z" fill="#ffda44"/><path d="m52 15v6a4 4 0 0 1 -8 0v-6z" fill="#ffda44"/><g fill="#ff9478"><path d="m60 15v6a4 4 0 0 1 -8 0v-6z"/><path d="m44 15v6a4 4 0 0 1 -8 0v-6z"/><path d="m28 15v6a4 4 0 0 1 -8 0v-6z"/><path d="m12 15v6a4 4 0 0 1 -8 0v-6z"/></g><path d="m33 29-9 8v5l14-13z" fill="#81bbff"/><path d="m44.882 29-20.882 19.094v6.906l28-26z" fill="#81bbff"/><rect fill="#ff9f85" height="3" rx="1.5" width="11" x="5" y="9"/><path d="m9 36h-1l2-3h1z" fill="#fff"/><path d="m12 36h-1l2-3h1z" fill="#fff"/><path d="m40 38h-2a5 5 0 0 1 -5-5h2a5 5 0 0 1 5 5z" fill="#64c37d"/><path d="m35 38c2.76 0 5 1.24 5 4 0-2.76 2.24-4 5-4a5 5 0 0 1 5 5c0 4-2.45 7.94-4.84 10.62a2.387 2.387 0 0 1 -3.46.08 2.414 2.414 0 0 0 -3.4 0 2.4 2.4 0 0 1 -1.7.7 2.355 2.355 0 0 1 -1.76-.78c-2.39-2.68-4.84-6.62-4.84-10.62a5 5 0 0 1 5-5z" fill="#d80027"/><path d="m10 47h2v4h-2z"/><path d="m62 15v-8a1 1 0 0 0 -1-1v-2a2.006 2.006 0 0 0 -2-2h-54a2.006 2.006 0 0 0 -2 2v2a1 1 0 0 0 -1 1v8a1 1 0 0 0 1 1v44h-1v2h60v-2h-1v-44a1 1 0 0 0 1-1zm-57-11h54v2h-54zm14 56h-10v-20h10zm0-22h-10v-1h10zm0-3h-10v-1h10zm40 25h-38v-27a1 1 0 0 0 -1-1h-12a1 1 0 0 0 -1 1v27h-2v-35.03a4.924 4.924 0 0 0 3 1.03 4.994 4.994 0 0 0 4-2.03 4.956 4.956 0 0 0 8 0 4.956 4.956 0 0 0 8 0 4.956 4.956 0 0 0 8 0 4.956 4.956 0 0 0 8 0 4.956 4.956 0 0 0 8 0 4.994 4.994 0 0 0 4 2.03 4.924 4.924 0 0 0 3-1.03zm-54-39v-5h6v5a3 3 0 0 1 -6 0zm8 0v-5h6v5a3 3 0 0 1 -6 0zm8 0v-5h6v5a3 3 0 0 1 -6 0zm8 0v-5h6v5a3 3 0 0 1 -6 0zm8 0v-5h6v5a3 3 0 0 1 -6 0zm8 0v-5h6v5a3 3 0 0 1 -6 0zm14 0a3 3 0 0 1 -6 0v-5h6zm1-7h-56v-6h56z"/><path d="m56 28h-32a1 1 0 0 0 -1 1v28a1 1 0 0 0 1 1h32a1 1 0 0 0 1-1v-28a1 1 0 0 0 -1-1zm-1 28h-30v-26h30z"/><path d="m45 37a7 7 0 0 0 -4 1.09v-1.09a4 4 0 0 1 4-4h2v-2h-2a6 6 0 0 0 -5.33 3.25 5.974 5.974 0 0 0 -4.67-2.25h-2a1 1 0 0 0 -1 1 5.962 5.962 0 0 0 1.68 4.15 6.012 6.012 0 0 0 -4.68 5.85c0 4.84 3.19 9.15 5.09 11.29a3.3 3.3 0 0 0 2.41 1.11 3.376 3.376 0 0 0 2.51-1 1.452 1.452 0 0 1 1.98 0 3.421 3.421 0 0 0 2.42 1h.09a3.3 3.3 0 0 0 2.41-1.11c1.9-2.14 5.09-6.45 5.09-11.29a6 6 0 0 0 -6-6zm-10-3a4 4 0 0 1 3.87 3h-.87a4 4 0 0 1 -3.87-3zm9.42 18.96a1.356 1.356 0 0 1 -.97.44 1.508 1.508 0 0 1 -1.05-.41 3.38 3.38 0 0 0 -4.8 0 1.508 1.508 0 0 1 -1.05.41 1.356 1.356 0 0 1 -.97-.44c-1.37-1.55-4.58-5.62-4.58-9.96a4 4 0 0 1 4-4c1.2 0 4 .29 4 3a1 1 0 0 0 2 0c0-2.71 2.8-3 4-3a4 4 0 0 1 4 4c0 4.34-3.21 8.41-4.58 9.96z"/><path d="m36 40a4 4 0 0 0 -4 4v1h2v-1a2 2 0 0 1 2-2z"/></g></svg>